<?xml version="1.0" encoding="UTF-8" standalone="no"?>
<svg
   width="73"
   height="72"
   viewBox="0 0 73 72"
   fill="none"
   version="1.1"
   id="svg4"
   sodipodi:docname="agenda.svg"
   inkscape:version="1.3.2 (091e20ef0f, 2023-11-25)"
   xmlns:inkscape="http://www.inkscape.org/namespaces/inkscape"
   xmlns:sodipodi="http://sodipodi.sourceforge.net/DTD/sodipodi-0.dtd"
   xmlns="http://www.w3.org/2000/svg"
   xmlns:svg="http://www.w3.org/2000/svg">
  <sodipodi:namedview
     id="namedview4"
     pagecolor="#ffffff"
     bordercolor="#000000"
     borderopacity="0.25"
     inkscape:showpageshadow="2"
     inkscape:pageopacity="0.0"
     inkscape:pagecheckerboard="0"
     inkscape:deskcolor="#d1d1d1"
     showgrid="false"
     inkscape:zoom="16.180556"
     inkscape:cx="36.525322"
     inkscape:cy="36"
     inkscape:window-width="3440"
     inkscape:window-height="1371"
     inkscape:window-x="0"
     inkscape:window-y="32"
     inkscape:window-maximized="1"
     inkscape:current-layer="svg4" />
  <circle
     cx="36.5"
     cy="36"
     r="35"
     fill="white"
     stroke="#111112"
     stroke-width="2"
     id="circle1" />
  <defs
     id="defs4">
    <clipPath
       id="clip0_1471_42613">
      <rect
         width="40"
         height="40"
         fill="white"
         transform="translate(16.5 16)"
         id="rect4" />
    </clipPath>
  </defs>
  <path
     stroke-linecap="round"
     stroke-linejoin="round"
     d="m 25.845463,17.087352 v 4.595015 m 21.443406,-4.595015 v 4.595015 M 18.187104,49.252461 V 26.277383 a 4.5950156,4.5950156 0 0 1 4.595015,-4.595016 h 27.570094 a 4.5950156,4.5950156 0 0 1 4.595015,4.595016 v 22.975078 m -36.760124,0 a 4.5950156,4.5950156 0 0 0 4.595015,4.595015 h 27.570094 a 4.5950156,4.5950156 0 0 0 4.595015,-4.595015 m -36.760124,0 V 33.935742 a 4.5950156,4.5950156 0 0 1 4.595015,-4.595016 h 27.570094 a 4.5950156,4.5950156 0 0 1 4.595015,4.595016 V 49.252461 M 36.567166,36.999086 h 0.01634 v 0.01634 h -0.01634 z m 0,4.595015 h 0.01634 v 0.01634 h -0.01634 z m 0,4.595016 h 0.01634 v 0.01634 h -0.01634 z m -4.595015,-4.595016 h 0.01634 v 0.01634 h -0.01634 z m 0,4.595016 h 0.01634 v 0.01634 h -0.01634 z m -4.595016,-4.595016 h 0.01634 v 0.01634 h -0.01634 z m 0,4.595016 h 0.01634 v 0.01634 h -0.01634 z m 13.785047,-9.190031 h 0.01634 v 0.01634 h -0.01634 z m 0,4.595015 h 0.01634 v 0.01634 h -0.01634 z m 0,4.595016 h 0.01634 v 0.01634 h -0.01634 z m 4.595015,-9.190031 h 0.01634 v 0.01634 h -0.01634 z m 0,4.595015 h 0.01634 v 0.01634 h -0.01634 z"
     id="path1"
     style="stroke:#0000ff;stroke-width:2.04223" />
</svg>
